<?xml version="1.0" encoding="utf-8"?>
<!-- Generator: Adobe Illustrator 23.0.3, SVG Export Plug-In . SVG Version: 6.00 Build 0)  -->
<svg version="1.1" id="Layer_1" xmlns="http://www.w3.org/2000/svg" xmlns:xlink="http://www.w3.org/1999/xlink" x="0px" y="0px"
	 viewBox="0 0 553.1 156.5" style="enable-background:new 0 0 553.1 156.5;" xml:space="preserve">
<style type="text/css">
	.st0{fill:#FFFFFF;}
</style>
<g>
	<path class="st0" d="M62.7,59.2c0-1.5,0-19.2,0-26.8c0-2.1-0.3-3.7-0.3-3.7s1.9,0.3,3.7,0.3s20.2,0,20.2,0
		c15.4,0,24.4,2.4,24.4,16.3c0,9.1-5.6,17.2-23.8,17.2c0,0-19,0-20.8,0s-3.6,0.2-3.6,0.2S62.7,61.1,62.7,59.2z M62.7,120.7
		c0-0.4,0-22.4,0-31c0-2.1-0.3-3.6-0.3-3.6s1.8,0.2,3.6,0.2s17.1,0,17.1,0c13.6,0,30.3,0,30.3,18.9c0,14-11.9,18.8-28,18.8
		c0,0-18.9,0-19.4,0c-1.8,0-3.6,0.3-3.6,0.3S62.7,122.4,62.7,120.7z M13.8,12.4v128.9c0,4.2,0.2,5.7-2.7,7.5
		c-2.9,1.8-5.9,2.1-10.6,2.9H0.4c-0.5,0.1-0.4,1.9,0.1,1.9c0.3,0,104.3,0,104.3,0c44,0,62.5-17.5,62.5-44.7
		c0-20.1-9.4-32.4-27.9-37.1c-0.3-0.1-0.3-0.5,0-0.6c11.8-3.7,22.7-12.2,22.7-33.2c0-28.4-19.2-38-61.1-38H0.4
		c-0.5,0-0.6,1.8-0.1,1.9h0.1C5.2,2.7,8.1,3,11,4.8C14,6.8,13.8,8.3,13.8,12.4z"/>
	<path class="st0" d="M539.3,12.4c0-4.2-0.2-5.6,2.7-7.5c2.9-1.8,5.9-2.1,10.6-2.9h0.1c0.5-0.1,0.4-1.9-0.1-1.9h-76.9
		c-0.5,0-0.6,1.8-0.1,1.9h0.1c4.9,0.6,7.1,1.1,10,2.9c3,1.8,2.7,3.3,2.7,7.5v77.5c0,17.7-10.1,31.2-30.2,31.2
		c-20.1,0-30.2-13.6-30.2-31.2V12.4c0-4.2-0.2-5.7,2.7-7.5s5.3-2.2,10-2.9h0.1c0.5-0.1,0.4-1.9-0.1-1.9h-72.6c-0.5,0-0.4,1.8,0,1.9
		h0.1c2.7,0.2,4.5,0.3,6.1,1.7c2.4,2.1,2.8,4.5,2.8,8.7v76.2c0,36.7,20.1,67.9,81.1,67.9s81.1-31.2,81.1-67.9L539.3,12.4L539.3,12.4
		z"/>
	<path class="st0" d="M306.1,153.7c0.5,0,0.6-1.8,0.1-1.9h-0.1c-4.8-0.8-7.7-1.1-10.6-2.9c-3-1.8-2.7-3.3-2.7-7.5V92.5l53.2-79
		c2.9-4.3,4.8-6.6,7.2-8.6c0.4-0.3,1.4-1,2-1.4c2.2-1.1,3-1.4,5.7-1.4c0,0,0,0,0.1,0c0.5-0.1,0.6-1.9,0.1-1.9h-71.7
		c-0.6,0-0.5,1.9,0,1.9h0.1c3.5,0,7.8,0,7.1,5c-0.4,4.9-21.1,34.8-28.4,46.1c-1.1,1.6-1.9,3.3-2.2,5.3c-0.3-2-1.5-4.1-2.4-5.3
		c-10.3-15.3-27.8-40.1-28.3-46.1c-0.4-5.2,3.6-5,7.1-5c0,0,0,0,0.1,0c0.5,0,0.7-1.9,0.1-1.9h-75.3c-0.4,0-0.4,1.7,0,1.9h0.1
		c3.2,0.3,5,0.1,8.7,1.9c0.4,0.2,1.5,0.9,1.9,1.3c2.4,2,3.9,3.9,6.8,8.2l53.1,78.7v49.3c0,4.2,0.2,5.7-2.7,7.5
		c-2.9,1.8-5.9,2.1-10.6,2.9c0,0,0,0-0.1,0c-0.5,0.1-0.4,1.9,0.1,1.9L306.1,153.7z"/>
</g>
</svg>
